# xmcd
#
# Track frame offsets:
#	150
#	17535
#	32205
#	48712
#	62205
#	78280
#	90662
#	109680
#	123492
#	140447
#
# Disc length: 2123 seconds
#
# Revision: 1
# Processed by: cddbd v1.5.2PL0 Copyright (c) Steve Scherf et al.
# Submitted via: EZCDAudioConverter 8.0.2.1
#
DISCID=8208490a
DTITLE=Kiều Nga - Những Tình Khúc Carpenters
DYEAR=1991
DGENRE=Miscellaneous
TTITLE0=Ngày xưa yêu dấu (Yesterday Once More)
TTITLE1=Cùng hát lên (Sing)
TTITLE2=Tìnhmộng mơ (Close To You)
TTITLE3=Hạnh phúc tình yêu (Top Of The World)
TTITLE4=Những ngày mưa buồn (Rainy Days And Mondays)
TTITLE5=Người đưa thư đã qua (Mr. Postman)
TTITLE6=Masquerade
TTITLE7=Tiếng thì thầm (There's A Kind Of Hush)
TTITLE8=Tìnhca cho anh (Goodbye To Love)
TTITLE9=Chí có ngày hôm qua (Only Yesterday)
EXTD=
EXTT0=
EXTT1=
EXTT2=
EXTT3=
EXTT4=
EXTT5=
EXTT6=
EXTT7=
EXTT8=
EXTT9=
PLAYORDER=
